<svg width="189" height="65" viewBox="0 0 189 65" fill="none" xmlns="http://www.w3.org/2000/svg">
<g clip-path="url(#clip0_221_2041)">
<path d="M173.868 0.00021125H15.0522C14.4733 0.00021125 13.9014 0.00021125 13.324 0.00346125C12.8407 0.00671125 12.3612 0.0161525 11.8733 0.0240988C10.8132 0.0369392 9.75563 0.132935 8.70974 0.311253C7.66533 0.493452 6.65363 0.836949 5.70886 1.33013C4.76525 1.82748 3.90305 2.47373 3.15353 3.24545C2.40007 4.015 1.77201 4.90449 1.29349 5.87972C0.813653 6.85301 0.48093 7.89599 0.306817 8.97262C0.131048 10.0479 0.036465 11.1356 0.023917 12.2259C0.00926686 12.7241 0.00771975 13.224 0 13.7223V51.2829C0.00771975 51.7875 0.00926686 52.2763 0.023917 52.781C0.0364688 53.8713 0.131052 54.9589 0.306817 56.0341C0.48045 57.1114 0.813192 58.1549 1.29349 59.1286C1.77179 60.1007 2.39994 60.9866 3.15353 61.7518C3.9002 62.527 4.76297 63.1737 5.70886 63.6672C6.65362 64.1617 7.66521 64.5073 8.70974 64.6923C9.75581 64.8692 10.8133 64.9652 11.8733 64.9796C12.3612 64.9906 12.8407 64.997 13.324 64.997C13.9014 65.0002 14.4734 65.0002 15.0522 65.0002H173.868C174.435 65.0002 175.012 65.0002 175.579 64.997C176.06 64.997 176.553 64.9906 177.034 64.9796C178.092 64.966 179.148 64.8699 180.192 64.6923C181.24 64.506 182.255 64.1605 183.204 63.6672C184.149 63.1734 185.011 62.5267 185.757 61.7518C186.509 60.9836 187.138 60.0983 187.623 59.1286C188.099 58.1542 188.429 57.1107 188.6 56.0341C188.776 54.9587 188.874 53.8714 188.893 52.781C188.899 52.2763 188.899 51.7875 188.899 51.2829C188.911 50.6926 188.911 50.1055 188.911 49.5055V15.4964C188.911 14.9013 188.911 14.311 188.899 13.7223C188.899 13.224 188.899 12.7241 188.893 12.2258C188.874 11.1354 188.776 10.048 188.6 8.97255C188.428 7.89654 188.099 6.85365 187.623 5.87966C186.648 3.92491 185.103 2.33375 183.204 1.32998C182.255 0.838008 181.24 0.494602 180.192 0.311106C179.148 0.132003 178.092 0.0359739 177.034 0.0238713C176.553 0.0159413 176.06 0.00641875 175.579 0.00325C175.012 0 174.435 0 173.868 0V0.00021125Z" fill="#A6A6A6"/>
<path d="M13.3319 63.5781C12.8509 63.5781 12.3815 63.5718 11.9043 63.5607C10.9157 63.5475 9.92944 63.4589 8.95355 63.2957C8.04358 63.1344 7.16207 62.8343 6.33808 62.4054C5.52166 61.98 4.77701 61.4222 4.13267 60.7534C3.479 60.0925 2.93479 59.3259 2.5216 58.4841C2.10387 57.6368 1.81477 56.7286 1.66438 55.7911C1.50197 54.7838 1.4141 53.7653 1.40153 52.7443C1.39152 52.4015 1.37842 51.2605 1.37842 51.2605V13.7221C1.37842 13.7221 1.39237 12.5985 1.40161 12.2684C1.41365 11.249 1.50101 10.2321 1.66293 9.22631C1.8136 8.28628 2.10292 7.37547 2.52088 6.5254C2.93254 5.68416 3.47373 4.91702 4.12346 4.25373C4.77246 3.58413 5.51949 3.02348 6.33731 2.59222C7.1594 2.16465 8.03925 1.86669 8.94738 1.70831C9.92647 1.54348 10.9162 1.45437 11.9082 1.44172L13.3327 1.42188H175.572L177.013 1.44251C177.996 1.45454 178.977 1.54286 179.947 1.70672C180.864 1.86708 181.753 2.16713 182.585 2.59698C184.223 3.4661 185.556 4.84114 186.397 6.52936C186.808 7.37356 187.093 8.27695 187.242 9.20886C187.406 10.2229 187.498 11.2478 187.516 12.2756C187.521 12.7358 187.521 13.2301 187.521 13.7221C187.534 14.3314 187.534 14.9114 187.534 15.4962V49.5053C187.534 50.0957 187.534 50.6717 187.521 51.2525C187.521 51.781 187.521 52.265 187.515 52.7633C187.496 53.7727 187.406 54.7793 187.245 55.7752C187.098 56.7194 186.81 57.6347 186.393 58.4889C185.976 59.3216 185.435 60.0816 184.789 60.7407C184.144 61.4131 183.398 61.9742 182.58 62.4023C181.751 62.8345 180.863 63.1357 179.947 63.2957C178.971 63.4598 177.985 63.5484 176.996 63.5607C176.534 63.5718 176.049 63.5781 175.579 63.5781L173.868 63.5814L13.3319 63.5781Z" fill="black"/>
<path d="M39.1024 32.9895C39.1194 31.6332 39.4694 30.3033 40.1199 29.1236C40.7703 27.944 41.7001 26.9528 42.8227 26.2424C42.1095 25.194 41.1687 24.3312 40.075 23.7226C38.9812 23.1139 37.7647 22.7762 36.5219 22.7362C33.8709 22.4498 31.3009 24.369 29.95 24.369C28.573 24.369 26.4931 22.7646 24.2534 22.812C22.8046 22.8602 21.3928 23.2939 20.1553 24.0707C18.9178 24.8475 17.8969 25.9411 17.192 27.2448C14.1389 32.686 16.4163 40.6827 19.3409 45.081C20.8042 47.2347 22.5144 49.6404 24.7521 49.5551C26.9418 49.4616 27.7596 48.1178 30.4028 48.1178C33.0215 48.1178 33.7888 49.5551 36.0719 49.5008C38.4215 49.4616 39.9019 47.3376 41.3139 45.1635C42.3653 43.6289 43.1743 41.9328 43.711 40.1382C42.3459 39.5438 41.181 38.5491 40.3614 37.2778C39.5419 36.0066 39.104 34.5152 39.1024 32.9895Z" fill="white"/>
<path d="M34.7903 19.8432C36.0715 18.2601 36.7026 16.2253 36.5498 14.1709C34.5925 14.3825 32.7845 15.3454 31.486 16.8678C30.8512 17.6115 30.365 18.4767 30.0552 19.4139C29.7453 20.3512 29.618 21.3421 29.6805 22.33C30.6595 22.3404 31.628 22.122 32.5131 21.6912C33.3982 21.2604 34.1768 20.6286 34.7903 19.8432Z" fill="white"/>
<path d="M66.7822 44.102H59.3097L57.5152 49.5562H54.3501L61.428 29.377H64.7164L71.7942 49.5562H68.5752L66.7822 44.102ZM60.0836 41.5851H66.0068L63.0869 32.7333H63.0052L60.0836 41.5851Z" fill="white"/>
<path d="M87.0803 42.2001C87.0803 46.772 84.703 49.7094 81.1155 49.7094C80.2067 49.7583 79.3029 49.5428 78.5076 49.0876C77.7123 48.6324 77.0575 47.9558 76.6184 47.1354H76.5505V54.4225H73.6167V34.8432H76.4565V37.2902H76.5105C76.9698 36.4737 77.6356 35.8006 78.437 35.3426C79.2384 34.8846 80.1454 34.6588 81.0615 34.6892C84.689 34.6893 87.0803 37.6409 87.0803 42.2001ZM84.0647 42.2001C84.0647 39.2215 82.5693 37.2632 80.2876 37.2632C78.046 37.2632 76.5382 39.2627 76.5382 42.2001C76.5382 45.1645 78.046 47.1497 80.2876 47.1497C82.5693 47.1497 84.0647 45.2057 84.0647 42.2001Z" fill="white"/>
<path d="M102.812 42.2001C102.812 46.772 100.434 49.7094 96.8469 49.7094C95.9382 49.7583 95.0344 49.5428 94.239 49.0876C93.4437 48.6324 92.789 47.9558 92.3499 47.1354H92.282V54.4225H89.3481V34.8432H92.1879V37.2902H92.2419C92.7012 36.4737 93.367 35.8006 94.1684 35.3426C94.9698 34.8846 95.8768 34.6588 96.7929 34.6892C100.421 34.6892 102.812 37.6409 102.812 42.2001ZM99.7962 42.2001C99.7962 39.2215 98.3007 37.2632 96.019 37.2632C93.7774 37.2632 92.2697 39.2627 92.2697 42.2001C92.2697 45.1645 93.7774 47.1497 96.019 47.1497C98.3007 47.1497 99.7962 45.2057 99.7962 42.2001H99.7962Z" fill="white"/>
<path d="M113.209 43.9343C113.426 45.9354 115.315 47.2493 117.896 47.2493C120.368 47.2493 122.147 45.9353 122.147 44.131C122.147 42.5647 121.074 41.6269 118.534 40.9841L115.993 40.3541C112.393 39.4591 110.722 37.7262 110.722 34.9142C110.722 31.4325 113.67 29.041 117.855 29.041C121.998 29.041 124.838 31.4325 124.933 34.9142H121.972C121.794 32.9004 120.177 31.6848 117.814 31.6848C115.45 31.6848 113.833 32.9147 113.833 34.7047C113.833 36.1314 114.866 36.9708 117.393 37.6135L119.553 38.1594C123.575 39.1385 125.246 40.8016 125.246 43.7532C125.246 47.5285 122.325 49.893 117.678 49.893C113.331 49.893 110.395 47.5841 110.206 43.9341L113.209 43.9343Z" fill="white"/>
<path d="M131.578 31.3623V34.844H134.296V37.2355H131.578V45.3462C131.578 46.6062 132.122 47.1934 133.317 47.1934C133.639 47.1876 133.961 47.1642 134.282 47.1235V49.5007C133.745 49.604 133.199 49.6508 132.652 49.6403C129.758 49.6403 128.63 48.5216 128.63 45.6683V37.2355H126.552V34.844H128.63V31.3623H131.578Z" fill="white"/>
<path d="M135.87 42.2009C135.87 37.5719 138.519 34.6631 142.649 34.6631C146.793 34.6631 149.429 37.5718 149.429 42.2009C149.429 46.8427 146.807 49.7388 142.649 49.7388C138.492 49.7388 135.87 46.8426 135.87 42.2009ZM146.44 42.2009C146.44 39.0255 145.026 37.1514 142.649 37.1514C140.272 37.1514 138.859 39.0398 138.859 42.2009C138.859 45.389 140.272 47.2489 142.649 47.2489C145.026 47.2489 146.44 45.389 146.44 42.2009H146.44Z" fill="white"/>
<path d="M151.848 34.843H154.646V37.3472H154.714C154.903 36.5651 155.348 35.8739 155.974 35.3898C156.6 34.9058 157.369 34.6583 158.152 34.6891C158.49 34.6879 158.827 34.7257 159.157 34.8018V37.6265C158.73 37.4922 158.285 37.4306 157.839 37.444C157.412 37.4262 156.988 37.5035 156.593 37.6707C156.199 37.8379 155.844 38.091 155.554 38.4126C155.263 38.7341 155.044 39.1166 154.911 39.5337C154.777 39.9508 154.733 40.3926 154.781 40.8289V49.5553H151.848L151.848 34.843Z" fill="white"/>
<path d="M172.684 45.2351C172.289 47.9059 169.762 49.7388 166.529 49.7388C162.371 49.7388 159.791 46.8712 159.791 42.2707C159.791 37.656 162.385 34.6631 166.406 34.6631C170.36 34.6631 172.847 37.4592 172.847 41.92V42.9547H162.752V43.1372C162.706 43.6787 162.771 44.2241 162.945 44.7373C163.119 45.2506 163.397 45.7199 163.761 46.114C164.125 46.5081 164.566 46.8181 165.055 47.0234C165.544 47.2286 166.069 47.3244 166.597 47.3044C167.29 47.3713 167.986 47.206 168.581 46.8332C169.176 46.4603 169.637 45.8999 169.898 45.2351L172.684 45.2351ZM162.766 40.8441H169.912C169.938 40.3573 169.866 39.8701 169.701 39.4131C169.536 38.9561 169.281 38.5393 168.951 38.1887C168.622 37.838 168.226 37.5612 167.788 37.3756C167.35 37.19 166.879 37.0996 166.406 37.1101C165.928 37.1072 165.455 37.2017 165.012 37.3881C164.57 37.5746 164.168 37.8493 163.83 38.1965C163.492 38.5436 163.223 38.9563 163.041 39.4107C162.858 39.8652 162.765 40.3523 162.766 40.8441V40.8441Z" fill="white"/>
<path d="M59.7155 14.1887C60.3305 14.1433 60.9478 14.239 61.5226 14.4688C62.0974 14.6986 62.6155 15.0569 63.0395 15.5178C63.4635 15.9787 63.7829 16.5307 63.9745 17.134C64.1662 17.7373 64.2254 18.3769 64.1478 19.0066C64.1478 22.1043 62.5213 23.8849 59.7155 23.8849H56.313V14.1887H59.7155ZM57.776 22.5136H59.552C59.9916 22.5407 60.4314 22.4665 60.8395 22.2965C61.2477 22.1265 61.6139 21.8649 61.9115 21.5309C62.209 21.1969 62.4305 20.7987 62.5597 20.3655C62.689 19.9322 62.7227 19.4747 62.6585 19.0264C62.7181 18.5798 62.6809 18.1251 62.5497 17.695C62.4184 17.265 62.1964 16.8701 61.8995 16.5387C61.6027 16.2073 61.2382 15.9476 60.8324 15.7782C60.4265 15.6089 59.9893 15.534 59.552 15.559H57.776V22.5136Z" fill="white"/>
<path d="M65.8 20.2224C65.7553 19.7415 65.8088 19.2564 65.9569 18.798C66.1051 18.3396 66.3447 17.9182 66.6603 17.5607C66.9759 17.2033 67.3607 16.9176 67.7899 16.7222C68.219 16.5267 68.6831 16.4258 69.1524 16.4258C69.6217 16.4258 70.0858 16.5267 70.515 16.7222C70.9442 16.9176 71.3289 17.2033 71.6446 17.5607C71.9602 17.9182 72.1998 18.3396 72.3479 18.798C72.4961 19.2564 72.5495 19.7415 72.5048 20.2224C72.5503 20.7038 72.4975 21.1896 72.3498 21.6487C72.202 22.1078 71.9626 22.53 71.6469 22.8882C71.3312 23.2464 70.9461 23.5326 70.5165 23.7284C70.0869 23.9243 69.6223 24.0255 69.1524 24.0255C68.6826 24.0255 68.2179 23.9243 67.7883 23.7284C67.3587 23.5326 66.9737 23.2464 66.658 22.8882C66.3422 22.53 66.1028 22.1078 65.9551 21.6487C65.8073 21.1896 65.7545 20.7038 65.8 20.2224ZM71.0618 20.2224C71.0618 18.6363 70.3696 17.7087 69.1547 17.7087C67.9353 17.7087 67.2493 18.6363 67.2493 20.2224C67.2493 21.8212 67.9353 22.7416 69.1547 22.7416C70.3696 22.7416 71.0618 21.8149 71.0618 20.2224H71.0618Z" fill="white"/>
<path d="M81.4176 23.8846H79.9623L78.4931 18.4955H78.3821L76.919 23.8846H75.4775L73.5181 16.5674H74.941L76.2145 22.1509H76.3193L77.7808 16.5674H79.1267L80.5882 22.1509H80.6992L81.9665 16.5674H83.3694L81.4176 23.8846Z" fill="white"/>
<path d="M85.0176 16.5664H86.3681V17.7288H86.4729C86.6508 17.3113 86.9507 16.9614 87.331 16.7277C87.7113 16.494 88.1529 16.3882 88.5943 16.4252C88.9402 16.3984 89.2875 16.4521 89.6105 16.5822C89.9335 16.7124 90.2239 16.9157 90.4602 17.1771C90.6965 17.4384 90.8726 17.7512 90.9756 18.0921C91.0785 18.4331 91.1056 18.7935 91.0548 19.1467V23.8836H89.6519V19.5094C89.6519 18.3335 89.1555 17.7487 88.1179 17.7487C87.8831 17.7374 87.6486 17.7786 87.4307 17.8693C87.2127 17.96 87.0164 18.0982 86.8552 18.2743C86.694 18.4504 86.5717 18.6603 86.4966 18.8897C86.4216 19.119 86.3956 19.3623 86.4205 19.603V23.8837H85.0176L85.0176 16.5664Z" fill="white"/>
<path d="M93.29 13.7109H94.693V23.8846H93.29V13.7109Z" fill="white"/>
<path d="M96.6433 20.2225C96.5986 19.7416 96.6521 19.2564 96.8003 18.7981C96.9484 18.3397 97.1881 17.9182 97.5037 17.5607C97.8194 17.2033 98.2042 16.9176 98.6334 16.7222C99.0626 16.5267 99.5267 16.4258 99.996 16.4258C100.465 16.4258 100.93 16.5267 101.359 16.7222C101.788 16.9176 102.173 17.2033 102.488 17.5607C102.804 17.9182 103.044 18.3397 103.192 18.7981C103.34 19.2564 103.393 19.7416 103.349 20.2225C103.394 20.7039 103.341 21.1898 103.194 21.6489C103.046 22.108 102.806 22.5302 102.491 22.8883C102.175 23.2465 101.79 23.5327 101.36 23.7286C100.931 23.9244 100.466 24.0256 99.996 24.0256C99.5262 24.0256 99.0615 23.9244 98.6319 23.7286C98.2023 23.5327 97.8172 23.2465 97.5015 22.8883C97.1857 22.5302 96.9462 22.108 96.7984 21.6489C96.6506 21.1898 96.5978 20.7039 96.6433 20.2225ZM101.905 20.2225C101.905 18.6364 101.213 17.7089 99.998 17.7089C98.7785 17.7089 98.0925 18.6364 98.0925 20.2225C98.0925 21.8214 98.7785 22.7418 99.998 22.7418C101.213 22.7418 101.905 21.815 101.905 20.2225H101.905Z" fill="white"/>
<path d="M104.826 21.8149C104.826 20.4978 105.778 19.7385 107.47 19.6305L109.395 19.5163V18.8847C109.395 18.1119 108.899 17.6755 107.94 17.6755C107.157 17.6755 106.614 17.9714 106.458 18.4888H105.1C105.243 17.2319 106.392 16.4258 108.005 16.4258C109.787 16.4258 110.792 17.339 110.792 18.8847V23.8843H109.441V22.856H109.33C109.105 23.2248 108.789 23.5255 108.414 23.7274C108.039 23.9292 107.618 24.025 107.195 24.0048C106.897 24.0368 106.595 24.004 106.31 23.9086C106.024 23.8132 105.762 23.6574 105.538 23.451C105.315 23.2447 105.136 22.9925 105.014 22.7107C104.891 22.4289 104.827 22.1238 104.826 21.8149ZM109.395 21.1897V20.5779L107.659 20.6922C106.68 20.7596 106.236 21.1024 106.236 21.7475C106.236 22.406 106.791 22.7893 107.555 22.7893C107.778 22.8126 108.004 22.7893 108.219 22.7209C108.433 22.6525 108.633 22.5404 108.804 22.3911C108.976 22.2419 109.117 22.0586 109.218 21.8522C109.32 21.6458 109.38 21.4205 109.395 21.1897Z" fill="white"/>
<path d="M112.635 20.2229C112.635 17.9107 113.79 16.446 115.586 16.446C116.03 16.4249 116.471 16.5345 116.857 16.7618C117.243 16.9891 117.558 17.3249 117.766 17.7298H117.871V13.7109H119.274V23.8846H117.929V22.7286H117.818C117.595 23.1307 117.269 23.4623 116.875 23.6873C116.482 23.9124 116.036 24.0223 115.586 24.0052C113.778 24.0053 112.635 22.5406 112.635 20.2229ZM114.084 20.2229C114.084 21.7749 114.795 22.7088 115.984 22.7088C117.166 22.7088 117.897 21.7614 117.897 20.2292C117.897 18.7042 117.159 17.7433 115.984 17.7433C114.803 17.7433 114.084 18.6836 114.084 20.2229H114.084Z" fill="white"/>
<path d="M125.078 20.2224C125.034 19.7415 125.087 19.2564 125.235 18.798C125.383 18.3396 125.623 17.9182 125.939 17.5607C126.254 17.2033 126.639 16.9176 127.068 16.7222C127.497 16.5267 127.961 16.4258 128.431 16.4258C128.9 16.4258 129.364 16.5267 129.793 16.7222C130.222 16.9176 130.607 17.2033 130.923 17.5607C131.239 17.9182 131.478 18.3396 131.626 18.798C131.774 19.2564 131.828 19.7415 131.783 20.2224C131.829 20.7038 131.776 21.1896 131.628 21.6487C131.48 22.1078 131.241 22.53 130.925 22.8882C130.609 23.2464 130.224 23.5326 129.795 23.7284C129.365 23.9243 128.901 24.0255 128.431 24.0255C127.961 24.0255 127.496 23.9243 127.067 23.7284C126.637 23.5326 126.252 23.2464 125.936 22.8882C125.621 22.53 125.381 22.1078 125.233 21.6487C125.086 21.1896 125.033 20.7038 125.078 20.2224ZM130.34 20.2224C130.34 18.6363 129.648 17.7087 128.433 17.7087C127.214 17.7087 126.528 18.6363 126.528 20.2224C126.528 21.8212 127.214 22.7416 128.433 22.7416C129.648 22.7416 130.34 21.8149 130.34 20.2224Z" fill="white"/>
<path d="M133.666 16.5664H135.017V17.7288H135.121C135.299 17.3113 135.599 16.9614 135.979 16.7277C136.36 16.494 136.801 16.3882 137.243 16.4252C137.589 16.3984 137.936 16.4521 138.259 16.5822C138.582 16.7124 138.872 16.9157 139.109 17.1771C139.345 17.4384 139.521 17.7512 139.624 18.0921C139.727 18.4331 139.754 18.7935 139.703 19.1467V23.8836H138.3V19.5094C138.3 18.3335 137.804 17.7487 136.766 17.7487C136.532 17.7374 136.297 17.7786 136.079 17.8693C135.861 17.96 135.665 18.0982 135.504 18.2743C135.342 18.4504 135.22 18.6603 135.145 18.8897C135.07 19.119 135.044 19.3623 135.069 19.603V23.8837H133.666V16.5664Z" fill="white"/>
<path d="M147.63 14.7461V16.6012H149.17V17.8176H147.63V21.5801C147.63 22.3466 147.937 22.6823 148.635 22.6823C148.814 22.6817 148.993 22.6705 149.17 22.6489V23.8518C148.918 23.8982 148.663 23.9229 148.407 23.9256C146.847 23.9256 146.226 23.3606 146.226 21.9499V17.8175H145.097V16.6011H146.226V14.7461H147.63Z" fill="white"/>
<path d="M151.087 13.7109H152.478V17.7433H152.589C152.775 17.3219 153.084 16.9699 153.472 16.7354C153.859 16.5008 154.308 16.395 154.757 16.4325C155.101 16.4132 155.445 16.4724 155.764 16.6057C156.083 16.739 156.37 16.9432 156.604 17.2038C156.838 17.4643 157.013 17.7748 157.117 18.113C157.221 18.4512 157.251 18.8089 157.205 19.1604V23.8847H155.8V19.5167C155.8 18.3479 155.272 17.756 154.28 17.756C154.039 17.7356 153.797 17.7697 153.57 17.8559C153.343 17.9422 153.137 18.0784 152.966 18.2551C152.796 18.4318 152.665 18.6447 152.583 18.8789C152.5 19.1131 152.469 19.363 152.49 19.6111V23.8846H151.087L151.087 13.7109Z" fill="white"/>
<path d="M165.385 21.9087C165.194 22.5774 164.781 23.1559 164.218 23.5429C163.655 23.9299 162.977 24.1008 162.304 24.0256C161.836 24.0383 161.371 23.946 160.94 23.755C160.51 23.564 160.126 23.279 159.813 22.9196C159.501 22.5603 159.268 22.1353 159.131 21.674C158.994 21.2128 158.957 20.7265 159.021 20.2488C158.958 19.7696 158.997 19.2822 159.133 18.8196C159.27 18.357 159.501 17.93 159.812 17.5675C160.123 17.205 160.506 16.9155 160.934 16.7185C161.363 16.5216 161.828 16.4218 162.298 16.4259C164.276 16.4259 165.469 17.8169 165.469 20.1147V20.6185H160.45V20.6995C160.428 20.968 160.461 21.2383 160.546 21.493C160.631 21.7477 160.768 21.9813 160.946 22.1786C161.124 22.376 161.34 22.5328 161.581 22.6391C161.822 22.7454 162.081 22.7987 162.343 22.7957C162.678 22.8372 163.018 22.775 163.32 22.617C163.621 22.4591 163.869 22.2125 164.034 21.9086L165.385 21.9087ZM160.45 19.5505H164.04C164.058 19.305 164.025 19.0583 163.945 18.8264C163.865 18.5944 163.738 18.3824 163.573 18.2039C163.408 18.0254 163.209 17.8843 162.988 17.7898C162.767 17.6952 162.53 17.6493 162.29 17.655C162.048 17.6518 161.807 17.6987 161.582 17.7929C161.357 17.887 161.153 18.0266 160.982 18.2032C160.81 18.3799 160.675 18.5901 160.583 18.8215C160.492 19.0529 160.447 19.3008 160.45 19.5505H160.45Z" fill="white"/>
</g>
<defs>
<clipPath id="clip0_221_2041">
<rect width="188.911" height="65" fill="white"/>
</clipPath>
</defs>
</svg>
